<svg width="40" height="40" viewBox="0 0 40 40" fill="none" xmlns="http://www.w3.org/2000/svg">
<path d="M19.9827 0C16.0996 0.00737769 12.3025 1.1438 9.05383 3.27086C5.80516 5.39791 3.24516 8.42379 1.68564 11.9799C0.126115 15.5361 -0.365614 19.469 0.270344 23.2996C0.906301 27.1302 2.6425 30.6933 5.26746 33.5547C7.14224 35.5869 9.41763 37.2087 11.9502 38.318C14.4828 39.4273 17.2178 40 19.9827 40C22.7476 40 25.4825 39.4273 28.0151 38.318C30.5477 37.2087 32.8231 35.5869 34.6979 33.5547C37.3228 30.6933 39.059 27.1302 39.695 23.2996C40.3309 19.469 39.8392 15.5361 38.2797 11.9799C36.7202 8.42379 34.1602 5.39791 30.9115 3.27086C27.6628 1.1438 23.8657 0.00737769 19.9827 0ZM19.9827 36.0372C15.8353 36.0309 11.8521 34.4161 8.87118 31.5326C9.7762 29.3294 11.3158 27.445 13.2943 26.1188C15.2727 24.7926 17.6008 24.0845 19.9827 24.0845C22.3645 24.0845 24.6926 24.7926 26.6711 26.1188C28.6496 27.445 30.1891 29.3294 31.0941 31.5326C28.1132 34.4161 24.13 36.0309 19.9827 36.0372ZM15.9785 16.0166C15.9785 15.2246 16.2134 14.4505 16.6533 13.792C17.0933 13.1335 17.7187 12.6203 18.4503 12.3172C19.182 12.0141 19.9871 11.9349 20.7638 12.0894C21.5406 12.2439 22.254 12.6252 22.814 13.1852C23.374 13.7452 23.7554 14.4587 23.9099 15.2354C24.0644 16.0121 23.9851 16.8172 23.682 17.5489C23.3789 18.2805 22.8657 18.9059 22.2072 19.3459C21.5488 19.7859 20.7746 20.0207 19.9827 20.0207C18.9207 20.0207 17.9022 19.5988 17.1513 18.8479C16.4004 18.097 15.9785 17.0785 15.9785 16.0166ZM33.817 28.029C32.0282 24.9693 29.2751 22.5894 25.9889 21.262C27.0083 20.1061 27.6725 18.6806 27.9018 17.1566C28.1311 15.6326 27.9158 14.0748 27.2817 12.6701C26.6476 11.2654 25.6217 10.0735 24.327 9.23748C23.0323 8.40143 21.5238 7.95672 19.9827 7.95672C18.4415 7.95672 16.9331 8.40143 15.6384 9.23748C14.3437 10.0735 13.3177 11.2654 12.6836 12.6701C12.0495 14.0748 11.8342 15.6326 12.0635 17.1566C12.2929 18.6806 12.9571 20.1061 13.9765 21.262C10.6903 22.5894 7.93715 24.9693 6.14837 28.029C4.72278 25.6007 3.96955 22.8365 3.96611 20.0207C3.96611 15.7728 5.65357 11.699 8.65725 8.69528C11.6609 5.69159 15.7348 4.00414 19.9827 4.00414C24.2305 4.00414 28.3044 5.69159 31.3081 8.69528C34.3118 11.699 35.9992 15.7728 35.9992 20.0207C35.9958 22.8365 35.2425 25.6007 33.817 28.029Z" fill="#F26D25"/>
</svg>
